<svg xmlns="http://www.w3.org/2000/svg" width="280" height="90" viewBox="0 0 280 90">
  <g id="Group_61" data-name="Group 61" transform="translate(-99 -19)">
    <g id="Group_60" data-name="Group 60">
      <g id="Ellipse_4" data-name="Ellipse 4" transform="translate(99 19)" fill="#336" stroke="#707070" stroke-width="1">
        <circle cx="45" cy="45" r="45" stroke="none"/>
        <circle cx="45" cy="45" r="44.5" fill="none"/>
      </g>
      <ellipse id="Ellipse_6" data-name="Ellipse 6" cx="34.5" cy="39.5" rx="34.5" ry="39.5" transform="translate(110 25)" fill="#bf4f53" opacity="0.83"/>
      <g id="Group_27" data-name="Group 27" transform="translate(480 65)">
        <g id="Group_26" data-name="Group 26">
          <g id="Group_25" data-name="Group 25">
            <path id="Path_25" data-name="Path 25" d="M-325.969-31.154l-2.221.011.217,7.868L-335.2-28.8l.128,4.381,23.166,17.6,1.662-2.873-15.466-11.839-.263-9.619Zm-9.928,2.376L-360.758-9.564l1.661,2.87,23.259-17.6-.059-4.486ZM-352.5-10.3l-2.745,2.441v31.48h2.745V-10.3Zm34.117,0,.09,33.921h2.655V-7.859l-2.745-2.441Zm-38.431,34.37v1.572h42.744V24.07Zm13.137,3.143v1.572h16.274V27.213Z" fill="#d9d9af" opacity="0.833" style="isolation: isolate"/>
            <path id="Path_26" data-name="Path 26" d="M-325.971-31.154l-2.218.014.214,7.871L-335.2-28.8l.129,4.384,23.168,17.6,1.66-2.869-15.465-11.842-.264-9.618Zm-9.929,2.469L-360.759-9.47-359.1-6.6l23.26-17.6-.061-4.483Zm-16.707,18.38-2.838,2.448V23.621h2.745l.093-33.925Zm34.22,0,.09,33.925h2.655V-7.857l-2.745-2.448ZM-356.818,24.07v1.572h42.744V24.07Zm13.137,3.143v1.572h16.274V27.213Z" fill="#d9d9af"/>
          </g>
        </g>
      </g>
      <text id="B" transform="translate(142.958 47.955)" fill="#1f2754" font-size="12.86" font-family="AdornSCondensedSans, AdornS Sans"><tspan x="0" y="13">B</tspan></text>
      <text id="B-2" data-name="B" transform="translate(141.318 50.039)" fill="#dda780" font-size="8.727" font-family="LansburyGDemoRegular, Lansbury G Demo"><tspan x="0" y="11">B</tspan></text>
      <g id="Group_30" data-name="Group 30" transform="translate(480 65)">
        <g id="Group_29" data-name="Group 29">
          <path id="Path_27" data-name="Path 27" d="M-336.182,19.7a7.78,7.78,0,0,1,1.281.191c.278.078.42.31.3.457l-1.826-.3c-.094.394.639.358.344.856-.541-.582-1.178-.548-1.36-1.17-.154.055-.334.31-.463.163.308-.51.63-.622.8-1.243l.384-1.776c-1.831-1.034-3.321-1.109-3.759-4.417a2.4,2.4,0,0,1-1.352-1.361c-.1-.434.078-.5.316-.719a2.587,2.587,0,0,1-1.5-2.28c.09-.766-.153-.449-.22-1.461.158-.28.416-.258.546-.331a.931.931,0,0,1-.079-.992.7.7,0,0,1,.8.01,2.13,2.13,0,0,1,.081-1.2c.773-.15.971.422,1.306,1.081a11.013,11.013,0,0,0,1,1.62c.522.673.584.891,1.567.793,3.119-.311,4.237.867,4.553-2.687a5.157,5.157,0,0,1,2-3.677c-.073-.967.155-.838.581-.7.132.044.328-.289.485-.176.255.182.159.4.264.452.179.087.275-.225.559-.028.238.165.091.3.1.453a.693.693,0,0,1,.387,1.051c.059.362.606.358.66.89a1.725,1.725,0,0,0-.854.1c-.126.943-.231,1.176-1.056,1.08.4,2.724,2.185,5.9.9,8.252-1.24,2.274-2.848,2.084-3.322,3.82-.33.8-.012.913-.639,1.4l.234,2c.665-.042,1.418-.616,1.737-.169l-.666.179c.628.041,1.222-.254,1.561.26a12.2,12.2,0,0,0-2.073.289c.22.344.409.061.447.593-.816-.043-1.178.051-1.637-.624-.135.115-.216.473-.4.344a2.713,2.713,0,0,0-.291-3.033,7.193,7.193,0,0,1-.488-.864h-1.165l-.5,2.475c.46.006,1.6-.181,1.764.329A7.591,7.591,0,0,0-336.182,19.7Z" fill="#dda780" fill-rule="evenodd"/>
        </g>
      </g>
    </g>
    <g id="Group_35" data-name="Group 35">
      <text id="BURBS" transform="translate(206 42)" fill="#1f2754" font-size="20" font-family="LansburyGDemoRegular, Lansbury G Demo"><tspan x="0" y="26">BURBS</tspan></text>
      <text id="to" transform="translate(281 45)" fill="#1f2754" font-size="16" font-family="MyriadPro-Regular, Myriad Pro"><tspan x="0" y="15">to</tspan></text>
      <text id="Basics" transform="translate(281 58)" fill="#1f2754" font-size="24" font-family="AdornSCondensedSans, AdornS Sans"><tspan x="0" y="24">basics</tspan></text>
    </g>
  </g>
</svg>
